<svg id="Layer_1" data-name="Layer 1" xmlns="http://www.w3.org/2000/svg" viewBox="0 0 22.83 23.83"><defs><style>.cls-1{fill:#45806e;}</style></defs><title>element_triangle2</title><path class="cls-1" d="M7.14,20l4.41,4.41L16,20l-4.41-4.41Zm4.41,1.59L10,20l1.59-1.59L13.14,20Zm-7-12.17,3.5-3.5,3.5,3.5,3.5-3.5,3.5,3.5L23,5,18.55.59l-3.5,3.5L11.55.59l-3.5,3.5L4.55.59.14,5Zm14-6L20.14,5,18.55,6.59,17,5Zm-7,0L13.14,5,11.55,6.59,10,5ZM6.14,5,4.55,6.59,3,5,4.55,3.41Z" transform="translate(-0.14 -0.59)"/><path class="cls-1" d="M11.55,12.59l-4-4L3.14,13l4.41,4.41,4-4,4,4L20,13,15.55,8.58Zm-4,2L6,13l1.59-1.59L9.14,13Zm8,0L14,13l1.59-1.59L17.14,13Z" transform="translate(-0.14 -0.59)"/></svg>