<svg id="Layer_1" data-name="Layer 1" xmlns="http://www.w3.org/2000/svg" viewBox="0 0 97.15 61.83"><defs><style>.cls-1{fill:#d9c17f;}</style></defs><title>footer_google_gold</title><g id="google"><g id="google_" data-name="google "><path class="cls-1" d="M.11,29.37C.41,13.46,15-.48,30.93,0c7.56-.4,14.71,3,20.58,7.66-2.49,2.78-5.07,5.57-7.85,8.15-7.06-4.87-17-6.26-24.06-.6-10,7-10.54,23.36-.8,30.82,9.35,8.55,27.14,4.28,29.73-8.75-5.87-.1-11.73,0-17.7-.2V26.58H60.36c.6,8.25-.5,17-5.57,23.86-7.65,10.84-23.07,13.92-35.07,9.35S-1.08,42.39.11,29.37Z" transform="translate(0 -0.01)"/><path class="cls-1" d="M79.45,17.63H88.2c0,3,0,5.87.1,8.85,3,0,5.87,0,8.85.1v8.75c-3,0-5.87,0-8.85.1,0,3,0,5.87-.1,8.85H79.45c0-3,0-5.87-.1-8.85-3,0-5.87-.1-8.85-.1V26.58c3,0,5.87,0,8.85-.1C79.45,23.52,79.45,20.52,79.45,17.63Z" transform="translate(0 -0.01)"/></g></g></svg>