<svg id="Layer_1" data-name="Layer 1" xmlns="http://www.w3.org/2000/svg" viewBox="0 0 97.15 61.83"><defs><style>.cls-1{fill:#1a3536;}</style></defs><title>footer_google_green</title><g id="google"><g id="google_" data-name="google+"><path class="cls-1" d="M.39,29.85C.69,13.94,15.31,0,31.21.52c7.56-.4,14.71,3,20.58,7.66-2.49,2.78-5.07,5.57-7.85,8.15-7.06-4.87-17-6.26-24.06-.6-10,7-10.54,23.36-.8,30.82,9.35,8.55,27.14,4.28,29.73-8.75-5.87-.1-11.73,0-17.7-.2V27.06H60.64c.6,8.25-.5,17-5.57,23.86C47.42,61.76,32,64.84,20,60.27S-.8,42.87.39,29.85Z" transform="translate(-0.28 -0.48)"/><path class="cls-1" d="M79.73,18.11h8.75c0,3,0,5.87.1,8.85,3,0,5.87,0,8.85.1v8.75c-3,0-5.87,0-8.85.1,0,3,0,5.87-.1,8.85H79.73c0-3,0-5.87-.1-8.85-3,0-5.87-.1-8.85-.1V27.06c3,0,5.87,0,8.85-.1C79.73,24,79.73,21,79.73,18.11Z" transform="translate(-0.28 -0.48)"/></g></g></svg>