<?xml version="1.0" encoding="utf-8"?>
<!-- Generator: Adobe Illustrator 20.0.0, SVG Export Plug-In . SVG Version: 6.00 Build 0)  -->
<svg version="1.1" id="Icons" xmlns="http://www.w3.org/2000/svg" xmlns:xlink="http://www.w3.org/1999/xlink" x="0px" y="0px"
	 viewBox="0 0 71 48.6" style="enable-background:new 0 0 71 48.6;" xml:space="preserve">
<style type="text/css">
	.st0{fill:url(#SVGID_1_);}
	.st1{fill:url(#SVGID_2_);}
	.st2{fill:url(#SVGID_3_);}
	.st3{fill:url(#SVGID_4_);}
	.st4{fill:url(#SVGID_5_);}
	.st5{fill:url(#SVGID_6_);}
</style>
<g>
	<linearGradient id="SVGID_1_" gradientUnits="userSpaceOnUse" x1="50.9842" y1="47.7814" x2="50.9842" y2="22.1588">
		<stop  offset="0.4117" style="stop-color:#BCA370"/>
		<stop  offset="1" style="stop-color:#C6C099"/>
	</linearGradient>
	<path class="st0" d="M56.3,28.7l-1-0.2c-0.2,0-5.4-1.2-8.6,1.8c-2,1.9-3,4.6-2.4,7.1c0.4,1.8,1.6,3.1,3.3,3.6
		c0.6,0.2,1.1,0.2,1.6,0.2c1.7,0,2.9-0.9,3.7-2.1c0.1,0.4,0.3,0.7,0.5,0.9c0.8,0.7,1.8,1.1,2.9,1.1c0.6,0,1.2-0.1,1.7-0.3
		c2.6-0.9,4.9-3.6,5.4-6.6c0.3-2,0.2-5.8-4.3-9.4l0,0c-2.2-1.7-5-2.7-7.8-2.7c-7.1,0-12.8,5.7-12.8,12.8c0,7.1,5.7,12.8,12.8,12.8
		c2.8,0,5.5-0.9,7.7-2.6l-1.2-1.6c-1.9,1.4-4.1,2.2-6.5,2.2c-6,0-10.8-4.9-10.8-10.8c0-6,4.9-10.8,10.8-10.8c3.3,0,6.3,1.4,8.4,4
		l0,0c1.8,2.2,2,4.2,1.7,5.7c-0.4,2.6-2.4,4.5-4.1,5.1c-0.7,0.3-1.8,0.4-2.6-0.4c-0.5-0.6,0-4.2,0.9-7.6l0,0
		c0.2-0.7,0.3-1.1,0.4-1.2L56.3,28.7z M51.6,37.2c-0.6,1.7-1.8,2.4-3.4,1.9c-0.9-0.3-1.6-1.1-1.9-2.2c-0.3-1.4,0-3.5,1.8-5.2
		c1.3-1.2,3.1-1.5,4.6-1.5c0.4,0,0.8,0,1.1,0.1C53.1,32.3,51.8,36.4,51.6,37.2z"/>
	<linearGradient id="SVGID_2_" gradientUnits="userSpaceOnUse" x1="35.5" y1="42.7814" x2="35.5" y2="0.7814">
		<stop  offset="0.4117" style="stop-color:#BCA370"/>
		<stop  offset="1" style="stop-color:#C6C099"/>
	</linearGradient>
	<path class="st1" d="M3.5,0.8v42h34v-2h-32V3.7l26.4,19.9c1.1,0.9,2.5,1.4,4,1.4c1.4,0,2.8-0.5,3.9-1.4L65.5,4.3v36.5h-3v2h5V2.3
		V1.9V0.8H3.5z M38.5,22.1c-1.4,1.2-3.9,1.2-5.3,0L7.7,2.9H64L38.5,22.1z"/>
	<linearGradient id="SVGID_3_" gradientUnits="userSpaceOnUse" x1="17.429" y1="37.7369" x2="17.429" y2="22.9542">
		<stop  offset="0.4117" style="stop-color:#BCA370"/>
		<stop  offset="1" style="stop-color:#C6C099"/>
	</linearGradient>
	<polygon class="st2" points="10,37.7 26.2,24.5 24.9,23 8.7,36.2 	"/>
	<linearGradient id="SVGID_4_" gradientUnits="userSpaceOnUse" x1="36.5" y1="6.7814" x2="36.5" y2="4.7814">
		<stop  offset="0.4117" style="stop-color:#BCA370"/>
		<stop  offset="1" style="stop-color:#C6C099"/>
	</linearGradient>
	<rect x="35.5" y="4.8" class="st3" width="2" height="2"/>
	<linearGradient id="SVGID_5_" gradientUnits="userSpaceOnUse" x1="36.5" y1="10.7814" x2="36.5" y2="8.7814">
		<stop  offset="0.4117" style="stop-color:#BCA370"/>
		<stop  offset="1" style="stop-color:#C6C099"/>
	</linearGradient>
	<rect x="35.5" y="8.8" class="st4" width="2" height="2"/>
	<linearGradient id="SVGID_6_" gradientUnits="userSpaceOnUse" x1="36.5" y1="14.7814" x2="36.5" y2="12.7814">
		<stop  offset="0.4117" style="stop-color:#BCA370"/>
		<stop  offset="1" style="stop-color:#C6C099"/>
	</linearGradient>
	<rect x="35.5" y="12.8" class="st5" width="2" height="2"/>
</g>
</svg>
